<svg xmlns="http://www.w3.org/2000/svg" xmlns:xlink="http://www.w3.org/1999/xlink" id="Layer_2" data-name="Layer 2" viewBox="0 0 420.48 144.16"><defs><style>      .cls-1 {        fill: #000810;      }      .cls-2 {        fill: url(#linear-gradient-8);      }      .cls-3 {        fill: url(#linear-gradient-7);      }      .cls-4 {        fill: url(#linear-gradient-5);      }      .cls-5 {        fill: url(#linear-gradient-6);      }      .cls-6 {        fill: url(#linear-gradient-9);      }      .cls-7 {        fill: url(#linear-gradient-4);      }      .cls-8 {        fill: url(#linear-gradient-3);      }      .cls-9 {        fill: url(#linear-gradient-2);      }      .cls-10 {        fill: url(#linear-gradient);      }      .cls-11 {        fill: url(#linear-gradient-10);      }      .cls-12 {        fill: #00d8b8;      }    </style><linearGradient id="linear-gradient" x1="-1950.39" y1="2887.1" x2="-1985.84" y2="2838.3" gradientTransform="translate(2011.03 2939.52) scale(1 -1)" gradientUnits="userSpaceOnUse"><stop offset=".37" stop-color="#3cdbc0"></stop><stop offset=".89" stop-color="#00a499"></stop></linearGradient><linearGradient id="linear-gradient-2" x1="-1962.95" y1="2896.23" x2="-1998.41" y2="2847.43" gradientTransform="translate(2011.03 2939.52) scale(1 -1)" gradientUnits="userSpaceOnUse"><stop offset="0" stop-color="#00a499"></stop><stop offset=".9" stop-color="#3cdbc0"></stop></linearGradient><linearGradient id="linear-gradient-3" x1="-1377.38" y1="1579.79" x2="-1412.83" y2="1530.99" gradientTransform="translate(1980.92 -777.64) rotate(-72) scale(1 -1)" gradientUnits="userSpaceOnUse"><stop offset=".11" stop-color="#00a499"></stop><stop offset=".84" stop-color="#39d2b8"></stop></linearGradient><linearGradient id="linear-gradient-4" x1="-1389.94" y1="1588.91" x2="-1425.4" y2="1540.12" gradientTransform="translate(1980.92 -777.64) rotate(-72) scale(1 -1)" gradientUnits="userSpaceOnUse"><stop offset=".1" stop-color="#3cdbc0"></stop><stop offset="1" stop-color="#00a499"></stop></linearGradient><linearGradient id="linear-gradient-5" x1="-2438.93" y1="609.84" x2="-2474.39" y2="561.04" gradientTransform="translate(-1572.15 -1877.92) rotate(-144) scale(1 -1)" gradientUnits="userSpaceOnUse"><stop offset="0" stop-color="#3cdbc0"></stop><stop offset=".89" stop-color="#00a499"></stop></linearGradient><linearGradient id="linear-gradient-6" x1="-2451.5" y1="618.97" x2="-2486.95" y2="570.17" gradientTransform="translate(-1572.15 -1877.92) rotate(-144) scale(1 -1)" gradientUnits="userSpaceOnUse"><stop offset="0" stop-color="#00a499"></stop><stop offset=".51" stop-color="#00d8b8"></stop></linearGradient><linearGradient id="linear-gradient-7" x1="-3677.39" y1="1323.34" x2="-3712.84" y2="1274.55" gradientTransform="translate(-3708.92 1151.22) rotate(144) scale(1 -1)" xlink:href="#linear-gradient"></linearGradient><linearGradient id="linear-gradient-8" x1="-3689.95" y1="1332.47" x2="-3725.41" y2="1283.68" gradientTransform="translate(-3708.92 1151.22) rotate(144) scale(1 -1)" xlink:href="#linear-gradient-2"></linearGradient><linearGradient id="linear-gradient-9" x1="-3378.41" y1="2732.22" x2="-3413.86" y2="2683.43" gradientTransform="translate(-1499.33 4119.78) rotate(72) scale(1 -1)" gradientUnits="userSpaceOnUse"><stop offset=".11" stop-color="#00a499"></stop><stop offset=".23" stop-color="#06aa9d"></stop><stop offset=".39" stop-color="#17b9a8"></stop><stop offset=".58" stop-color="#33d3ba"></stop><stop offset=".63" stop-color="#3cdbc0"></stop></linearGradient><linearGradient id="linear-gradient-10" x1="-3390.97" y1="2741.35" x2="-3426.42" y2="2692.56" gradientTransform="translate(-1499.33 4119.78) rotate(72) scale(1 -1)" xlink:href="#linear-gradient-2"></linearGradient></defs><g id="Layer_2-2" data-name="Layer 2"><g><g><g><path class="cls-1" d="M161.4,30.89c-19.6,0-32.36,13.27-32.51,33.82,0,20.54,12.85,34.34,31.98,34.34,7.44,0,13.84-1.78,20.86-5.89v3.92h12.56v-62.59l-1.48-.29c-11.6-2.24-19.26-3.31-31.42-3.31ZM181.74,43.72v37.44c-7.18,4.61-12.98,6.51-19.81,6.51-12.43,0-20.47-8.91-20.47-22.7s7.9-22.7,21.12-22.7c6.54,0,12.19.42,19.16,1.45Z"></path><path class="cls-1" d="M214.84,34.59l-1.5.27v62.22h12.56v-52.12c8.42-.92,15.32-1.12,22.96-1.12h1.82v-12.43h-1.82c-10.77,0-22.22,1.07-34.02,3.17Z"></path><rect class="cls-1" x="264.47" y="32.86" width="12.56" height="64.22"></rect><path class="cls-1" d="M270.75,4.4c-4.78,0-8.38,3.6-8.38,8.38s3.68,8.25,8.38,8.25,8.38-3.62,8.38-8.25-3.6-8.38-8.38-8.38Z"></path><path class="cls-1" d="M321.13,58.87c-11.13-2.61-14.72-3.84-14.72-8.45,0-6.95,6.92-8.41,12.73-8.41s13.59,1.44,21.08,3.84l1.72.55,3.49-10.48-1.68-.6c-5.87-2.08-15.24-4.3-23.95-4.3-16.17,0-25.82,7.4-25.82,19.78,0,11.68,8.55,15.87,21.38,18.57l1.74.36c11.6,2.4,17.66,3.91,17.66,9.52,0,6.39-7.25,8.67-14.04,8.67s-16.33-2.2-24.71-5.88l-1.92-.84-3.09,11.03,1.46.63c8.98,3.87,19.35,6.18,27.73,6.18,16.66,0,26.61-7.69,26.61-20.57,0-14.01-12.48-16.73-25.66-19.61Z"></path><path class="cls-1" d="M389.68,30.89c-19.6,0-33.29,13.96-33.29,33.95s13.58,34.21,34.6,34.21c9.3,0,16.31-1.85,24.51-4.27l1.59-.47-2.14-10.86-1.86.47c-8.56,2.18-14.58,3.35-21.84,3.35-11.47,0-19.33-6.34-21.36-17.08h49.96l.21-1.58c.41-3.01.41-4.15.41-7.21-.14-18.26-12.51-30.52-30.8-30.52ZM408.61,59.48h-39.05c1.64-10.91,9.25-17.6,20.25-17.6s17.89,6.69,18.8,17.6Z"></path></g><path class="cls-1" d="M400.57,139.28c.77,1.07,1.8,1.85,3.1,2.36,1.3.51,2.67.77,4.12.77,1.09,0,2.11-.16,3.07-.48.96-.32,1.79-.78,2.49-1.37.7-.59,1.26-1.33,1.68-2.2.42-.87.62-1.85.62-2.94,0-1.36-.28-2.43-.83-3.21-.55-.78-1.24-1.39-2.06-1.85-.82-.46-1.71-.81-2.68-1.07-.97-.25-1.87-.54-2.68-.86-.82-.32-1.51-.73-2.06-1.25-.55-.51-.83-1.25-.83-2.2,0-.34.07-.71.21-1.12.14-.4.38-.78.72-1.13.34-.35.79-.64,1.36-.86.56-.22,1.27-.34,2.12-.34.89,0,1.69.18,2.4.54.7.36,1.25.84,1.63,1.44l2.49-2.27c-.85-1.04-1.84-1.74-2.97-2.08s-2.31-.51-3.55-.51c-1.36,0-2.53.21-3.5.62-.97.42-1.76.93-2.38,1.55-.62.62-1.07,1.3-1.36,2.04-.29.75-.43,1.45-.43,2.11,0,1.47.27,2.63.83,3.5s1.24,1.55,2.06,2.06c.82.51,1.71.91,2.68,1.2.97.29,1.86.58,2.68.89.82.31,1.5.69,2.06,1.15.55.46.83,1.12.83,2,0,.62-.14,1.16-.42,1.63-.28.47-.64.86-1.07,1.18-.44.32-.92.56-1.45.72-.53.16-1.06.24-1.57.24-.92,0-1.8-.2-2.67-.59-.86-.39-1.57-1.01-2.12-1.84l-2.52,2.17ZM379.05,119.22v14.35c0,1.32.22,2.52.67,3.59.45,1.08,1.07,2.01,1.85,2.8.79.79,1.71,1.4,2.78,1.82,1.06.43,2.22.64,3.45.64s2.38-.21,3.45-.64c1.07-.43,1.99-1.03,2.78-1.82.79-.79,1.41-1.72,1.85-2.8.45-1.07.67-2.27.67-3.59v-14.35h-3.07v13.87c0,.7-.1,1.43-.29,2.19-.19.76-.51,1.45-.96,2.09-.45.64-1.03,1.16-1.76,1.57-.72.4-1.62.61-2.68.61s-1.96-.2-2.68-.61c-.72-.41-1.31-.93-1.76-1.57-.45-.64-.77-1.34-.96-2.09-.19-.76-.29-1.49-.29-2.19v-13.87h-3.07ZM345.64,141.83h3.07v-10.35h11.72v10.35h3.07v-22.62h-3.07v9.39h-11.72v-9.39h-3.07v22.62ZM331.53,141.83h3.07v-19.74h7.28v-2.88h-17.63v2.88h7.28v19.74ZM317.42,141.83h3.07v-22.62h-3.07v22.62ZM289.76,141.83h3.26l5.43-18.46h.06l5.46,18.46h3.26l6.58-22.62h-3.19l-5,18.08h-.06l-5.32-18.08h-3.51l-5.32,18.08h-.06l-5-18.08h-3.19l6.61,22.62Z"></path><path class="cls-12" d="M268.31,120.52c-.93,3.99-4.83,7.38-7.1,8.4-1.11.51-1.76.56-2.83.65,2.65-5.43,6.87-10.96,9.15-10.96.74,0,1.07.7.79,1.91M257.4,131.71c.65,0,2,.14,3.53-.23,4.5-1.02,12.21-5.94,12.21-9.29,0-3.72-3.81-6.59-7.71-6.59-7.01,0-15.78,13.93-15.78,21.41,0,2.97,3.99,6.55,7.85,6.55,4.41,0,12.77-7.61,14.53-10.86.14-.33.42-1.53-.09-1.58-5.71,5.71-11.61,9.05-14.62,9.05-.84,0-1.49-.74-1.49-2.04,0-1.76.6-4.04,1.58-6.41M238.19,143.55c.19-.19,2.14-4.04,4.88-8.59,3.34-5.53,11.38-17.41,13.84-18.71-.42-.7-2.83-1.72-3.48-1.21-3.48,2.83-14.16,21.27-15.55,24.33,0-2.09,1.25-8.12,2.41-13.09.88-3.67,1.63-6.41,1.95-6.73-.14-1.02-5.34-2.93-6.18-2.18-1.35,3.57-3.9,16.21-3.99,20.76,0,.7.05,1.25.14,1.48.14.28.33.6.65.98,1.11,1.21,3.39,2.65,5.34,2.97M209.72,139.6c-.14-5.43,7.47-20.29,11.61-20.29,1.53,0,2.23,1.39,2.69,2.79-4.04,6.87-12.12,18.3-13.74,18.3-.33,0-.56-.37-.56-.79M217.71,115.97c-1.9,0-4.46,2.09-6.69,5.06-3.85,5.15-7.34,12.91-7.34,17.04,0,2.51,4.32,5.57,7.66,5.57,1.02,0,5.06-5.76,9.24-12.12-.79,1.95-2.69,7.38-2.69,8.64s3.57,3.62,5.66,4c-.09-.23-.14-.6-.14-1.02.05-1.86,1.16-5.25,2.51-9.1.98-2.74,2.32-6.41,4.55-11.1.65-1.35,1.76-3.44,2.32-3.76-.09-.56-3.06-2.41-4.73-2.37-.28,0-.6.28-.74.42-.46.51-1.16,1.58-1.9,3.02-1.26-3.11-4.74-4.27-7.71-4.27M193.93,143.32c.05-.46,2.65-5.53,5.71-11.14,3.67-6.73,8.36-14.58,10.31-15.79-.51-.7-3.11-1.53-3.76-1.02-1.72,1.11-11.51,20.43-12.58,23.22-.19-2.55,1.3-16.58,1.9-17.41-.05-1.16-5.01-3.02-5.71-2-1.86,2.23-8.31,13.05-11.14,18.53.28-3.9,4.5-17.6,5.2-18.39.14-1.3-5.57-2.97-6.08-2-1.63,3.71-4.97,17.09-5.15,21.13,0,.46.05.88.09,1.02.46,1.39,4.09,3.85,5.99,3.85.37-.56,5.99-12.91,10.08-18.99-.88,4.41-1.48,10.77-1.48,13.51,0,.6.05,1.02.09,1.21.23,1.35,4.55,4.27,6.55,4.27"></path><path class="cls-1" d="M144.75,141.83h15.17v-2.88h-12.11v-7.25h10.73v-2.88h-10.73v-6.74h11.53v-2.88h-14.6v22.62ZM120.6,141.83h3.07v-10.35h11.72v10.35h3.07v-22.62h-3.07v9.39h-11.72v-9.39h-3.07v22.62ZM106.49,141.83h3.07v-19.74h7.28v-2.88h-17.63v2.88h7.28v19.74ZM72.08,141.83h15.17v-2.88h-12.11v-7.25h10.73v-2.88h-10.73v-6.74h11.53v-2.88h-14.6v22.62ZM50.49,122.09h4.6c1.83,0,3.32.3,4.47.91,1.15.61,2.05,1.35,2.7,2.22.65.87,1.09,1.79,1.33,2.76.23.97.35,1.82.35,2.54,0,1.4-.25,2.63-.77,3.69-.51,1.06-1.2,1.93-2.08,2.64s-1.89,1.23-3.05,1.58c-1.16.35-2.39.53-3.69.53h-3.86v-16.87ZM47.42,141.83h7.38c2.02,0,3.81-.32,5.35-.96,1.55-.64,2.84-1.48,3.88-2.54,1.04-1.05,1.83-2.26,2.36-3.61.53-1.35.8-2.75.8-4.2,0-.7-.08-1.47-.22-2.3-.15-.83-.39-1.66-.73-2.49-.34-.83-.8-1.64-1.39-2.43-.58-.79-1.32-1.49-2.2-2.09-.88-.61-1.93-1.09-3.13-1.45-1.2-.36-2.6-.54-4.2-.54h-7.89v22.62ZM38.32,141.83h3.07v-22.62h-3.07v22.62ZM21.21,121.9h4.02c.6,0,1.19.05,1.77.14.58.1,1.11.27,1.57.53.46.26.82.62,1.1,1.1.28.48.42,1.1.42,1.87s-.14,1.39-.42,1.87-.65.85-1.1,1.1c-.46.26-.98.43-1.57.53-.59.1-1.18.14-1.77.14h-4.02v-7.28ZM18.14,141.83h3.07v-9.97h3.42l5.75,9.97h3.83l-6.42-10.32c.85-.09,1.62-.32,2.32-.69.69-.37,1.28-.83,1.76-1.37.48-.54.85-1.15,1.1-1.82.26-.67.38-1.37.38-2.09s-.11-1.43-.32-2.19c-.21-.76-.59-1.44-1.13-2.04-.54-.61-1.28-1.11-2.22-1.5s-2.13-.59-3.58-.59h-7.96v22.62Z"></path></g><g><g><path class="cls-10" d="M44.81,40.92s-11.64,5.04-10.68,21.84c.96,16.2,11.28,29.4,30.48,34.32H19.49S3.41,50.16,44.81,40.92Z"></path><path class="cls-9" d="M44.21,41.28c.36-.24.6-.36.6-.36-41.4,9.24-25.32,56.16-25.32,56.16h6.72c-.84-2.52-13.44-42.48,18-55.8Z"></path></g><g><path class="cls-8" d="M36.99,55.64s1.2,12.63,17.47,16.91c15.7,4.09,31.44-1.64,42.06-18.38l-13.94,42.91s-49.59.79-45.58-41.43Z"></path><path class="cls-7" d="M37.15,56.32c-.12-.42-.16-.68-.16-.68-4.01,42.23,45.58,41.43,45.58,41.43l2.08-6.39c-2.66.02-44.55-.34-47.5-34.36Z"></path></g><g><path class="cls-4" d="M48.58,67.63s12.38,2.76,21.48-11.39c8.74-13.67,8.15-30.41-4.49-45.68l36.5,26.52s-14.57,47.41-53.49,30.55Z"></path><path class="cls-5" d="M49.28,67.69c-.43-.02-.7-.06-.7-.06,38.92,16.86,53.49-30.55,53.49-30.55l-5.44-3.95c-.8,2.53-14.1,42.26-47.36,34.56Z"></path></g><g><path class="cls-3" d="M63.56,60.31s6.45-10.92-4.2-23.94c-10.3-12.54-26.4-17.15-44.83-9.85L51.04,0s40.59,28.51,12.52,60.31Z"></path><path class="cls-2" d="M63.83,59.67c-.15.41-.27.64-.27.64C91.62,28.51,51.04,0,51.04,0l-5.44,3.95c2.16,1.54,35.84,26.47,18.23,55.72Z"></path></g><g><path class="cls-6" d="M61.23,43.81s-8.39-9.51-24.07-3.41c-15.11,5.92-24.47,19.81-23.22,39.59L0,37.08s39.65-29.79,61.23,6.73Z"></path><path class="cls-11" d="M60.7,43.35c.34.27.53.46.53.46C39.65,7.29,0,37.08,0,37.08l2.08,6.39c2.14-1.58,36.25-25.91,58.63-.12Z"></path></g><path class="cls-12" d="M99.66,92.04c0,2.88-2.16,5.04-5.16,5.04s-5.16-2.16-5.16-5.04,2.16-5.04,5.16-5.04c2.88-.12,5.16,2.04,5.16,5.04ZM89.94,92.04c0,2.52,1.92,4.44,4.56,4.44s4.56-1.92,4.56-4.44-1.92-4.44-4.56-4.44-4.56,1.8-4.56,4.44ZM96.66,90.96c0,.72-.48,1.32-1.08,1.68l1.56,2.04h-1.2l-1.2-1.8h-1.2v1.8h-.96v-5.52h1.92c1.32,0,2.16.6,2.16,1.8ZM93.3,90v2.04h1.2c.6,0,1.2-.48,1.2-1.08s-.6-.96-1.2-.96h-1.2Z"></path></g></g></g></svg>