<svg width="102" height="25" viewBox="0 0 102 25" fill="none" xmlns="http://www.w3.org/2000/svg">
<g clip-path="url(#clip0_2425_4442)">
<path d="M101.93 16.9542C101.93 19.0208 101.12 20.7201 99.5031 22.0521C97.9082 23.3611 95.8074 24.0154 93.2016 24.0154C90.5506 24.0154 88.4159 23.3611 86.7986 22.0521C85.2036 20.7431 84.4058 19.0438 84.4058 16.9542C84.4058 14.5428 85.6865 12.7632 88.2475 11.6149C86.2033 10.4666 85.1809 8.84763 85.1809 6.75804C85.1809 4.80583 85.9222 3.20984 87.4051 1.96972C88.8876 0.706626 90.82 0 93.2016 0C95.5378 0 97.4477 0.706626 98.9303 1.96972C100.413 3.20984 101.154 4.80583 101.154 6.75804C101.154 8.84763 100.132 10.4666 98.0878 11.6149C100.649 12.7861 101.93 14.5658 101.93 16.9542ZM89.9999 6.93024C89.9999 7.80264 90.2805 8.50326 90.8424 9.0313C91.4264 9.53637 92.2128 9.7893 93.2016 9.7893C94.1673 9.7893 94.9313 9.53637 95.4929 9.0313C96.0773 8.50326 96.3693 7.80264 96.3693 6.93024C96.3693 5.98855 96.0773 5.24202 95.4929 4.69104C94.9313 4.14003 94.1673 3.86454 93.2016 3.86454C92.2128 3.86454 91.4264 4.14003 90.8424 4.69104C90.2805 5.24202 89.9999 5.98855 89.9999 6.93024ZM89.225 16.8509C89.225 17.907 89.5731 18.7338 90.2693 19.3307C90.9884 19.928 91.9659 20.2265 93.2016 20.2265C94.4145 20.2265 95.3693 19.928 96.066 19.3307C96.7846 18.7109 97.144 17.884 97.144 16.8509C97.144 15.8633 96.7846 15.0708 96.066 14.4739C95.3469 13.8766 94.3918 13.5782 93.2016 13.5782C91.9659 13.5782 90.9884 13.8766 90.2693 14.4739C89.5731 15.0479 89.225 15.8403 89.225 16.8509Z" fill="#14212A"/>
<path d="M4.71301 15.045V24.0153H0V5.56445H4.34003V9.24196C4.99554 8.11734 5.96754 7.22889 7.25599 6.57661C8.54443 5.90182 9.92329 5.56445 11.3926 5.56445V10.4228C9.22255 10.2654 7.56114 10.524 6.40834 11.1988C5.27811 11.8736 4.71301 13.1556 4.71301 15.045Z" fill="#14212A"/>
<path d="M20.6988 24.0153C18.0279 24.0153 15.8689 23.17 14.2218 21.4795C12.5971 19.7668 11.7847 17.5202 11.7847 14.7398C11.7847 12.0928 12.6193 9.90187 14.2886 8.1669C15.9579 6.43193 18.0724 5.56445 20.632 5.56445C23.4587 5.56445 25.6954 6.56539 27.3426 8.5673C28.9896 10.5692 29.6017 13.0271 29.1789 15.941H16.5255C16.8371 18.9438 18.1948 20.4452 20.5986 20.4452C22.6685 20.4452 23.9817 19.5221 24.5381 17.6759H29.1455C28.6557 19.7001 27.6652 21.2682 26.174 22.3804C24.7051 23.4703 22.88 24.0153 20.6988 24.0153ZM20.5318 8.96767C18.3061 8.96767 16.9929 10.3134 16.5922 13.0048H24.271C24.2043 11.7592 23.837 10.7805 23.1693 10.0687C22.5016 9.33467 21.6224 8.96767 20.5318 8.96767Z" fill="#14212A"/>
<path d="M47.6063 14.8776C47.6063 17.4947 46.8829 19.6719 45.4362 21.4093C44.0115 23.1467 42.1375 24.0154 39.8143 24.0154C37.5346 24.0154 35.6935 23.0587 34.2907 21.1454V24.0154H30.0825V0H34.6526V8.34601C35.9455 6.60863 37.6661 5.73993 39.8143 5.73993C42.1375 5.73993 44.0115 6.60863 45.4362 8.34601C46.8829 10.0614 47.6063 12.2386 47.6063 14.8776ZM42.9048 14.8776C42.9048 13.2722 42.5101 12.0297 41.7211 11.15C40.9539 10.2483 39.9786 9.79747 38.795 9.79747C37.6332 9.79747 36.658 10.2373 35.8688 11.117C35.0799 11.9967 34.6854 13.2283 34.6854 14.8117C34.6854 16.4171 35.0689 17.6706 35.836 18.5723C36.6252 19.474 37.6113 19.9248 38.795 19.9248C39.9786 19.9248 40.9539 19.485 41.7211 18.6053C42.5101 17.7036 42.9048 16.4611 42.9048 14.8776Z" fill="#14212A"/>
<path d="M62.804 21.8732C61.1469 23.1782 59.2905 24.0178 57.2443 24.0153C53.6938 24.0106 50.6524 22.0571 49.0687 18.5963C46.8403 13.7268 48.9991 8.15122 53.8857 6.18455C56.3666 5.18619 58.8175 5.44553 61.1793 6.58875C63.028 7.48338 64.4805 8.85912 65.6948 10.4917C65.772 10.5958 65.8647 10.6892 66.009 10.8551C66.3135 10.4727 66.5833 10.1218 66.8657 9.78094C68.4604 7.85575 70.4014 6.45104 72.8785 5.84723C77.7676 4.6557 82.645 7.83751 83.6344 12.741C84.4978 17.0188 82.2874 21.0584 78.9429 22.8548C75.6044 24.6476 72.4311 24.0209 69.416 22.0181C68.2761 21.2609 67.3323 20.2936 66.5731 19.1539C66.4248 18.9318 66.2472 18.729 66.0151 18.4292C65.0368 19.6902 64.0957 20.9164 62.804 21.8732ZM53.9991 10.7789C52.6245 12.2345 52.0499 13.9379 52.4877 15.902C53.1788 19.0034 56.6069 21.3317 59.8804 19.0051C61.429 17.9045 62.5632 16.493 63.5315 14.9094C63.7166 14.6064 63.6167 14.3624 63.447 14.102C62.6208 12.8329 61.7175 11.6281 60.4624 10.7374C58.4651 9.31986 56.1054 8.90741 53.9991 10.7789ZM78.9961 17.217C79.7219 15.8405 79.848 14.405 79.4064 12.9223C78.7622 10.7621 76.3426 8.82729 73.6201 9.74016C71.2046 10.5504 69.7449 12.3579 68.4752 14.3925C68.3439 14.6035 68.4339 14.7767 68.535 14.9562C69.3474 16.3975 70.2908 17.7424 71.6633 18.7136C72.8184 19.531 74.0607 20.1888 75.5598 19.8769C77.0938 19.5582 78.1957 18.6503 78.9961 17.217Z" fill="#056FD4"/>
</g>
<defs>
<clipPath id="clip0_2425_4442">
<rect width="101.93" height="24.0156" fill="white"/>
</clipPath>
</defs>
</svg>
